P3
3 3
255
127 127 254 255 255 255 127 254 254 
255 255 255 127 127 127 255 255 255 
254 127 254 255 255 255 254 254 254 
