P3
4 4
255
127 127 254 255 255 255 127 254 254 255 255 255 
255 255 255 127 127 254 255 255 255 127 254 254 
254 127 254 255 255 255 254 254 254 255 255 255 
255 255 255 254 127 254 255 255 255 254 254 254 
